<svg width="512" height="512" viewBox="0 0 512 512" xmlns="http://www.w3.org/2000/svg">
  <defs>
    <linearGradient id="gradient1" x1="0%" y1="0%" x2="100%" y2="100%">
      <stop offset="0%" style="stop-color:#d4a574;stop-opacity:1" />
      <stop offset="50%" style="stop-color:#8b6914;stop-opacity:1" />
      <stop offset="100%" style="stop-color:#654321;stop-opacity:1" />
    </linearGradient>
    <linearGradient id="shadow" x1="0%" y1="100%" x2="100%" y2="0%">
      <stop offset="0%" style="stop-color:#000000;stop-opacity:0.1" />
      <stop offset="100%" style="stop-color:#000000;stop-opacity:0.3" />
    </linearGradient>
  </defs>
  
  <!-- Background circle for app icons -->
  <circle cx="256" cy="256" r="240" fill="#FFF8F0" opacity="0.5"/>
  
  <!-- Main Logo Group -->
  <g transform="translate(256, 256)">
    <!-- Supporting hand -->
    <path d="M -80 40 
             C -80 20, -70 10, -50 10
             L -30 10
             C -20 10, -15 15, -15 25
             L -15 50
             L -5 50
             C 5 50, 10 45, 10 35
             L 10 20
             L 20 20
             C 30 20, 35 25, 35 35
             L 35 45
             L 45 45
             C 55 45, 60 50, 60 60
             L 60 70
             C 60 90, 50 100, 30 100
             L -50 100
             C -70 100, -80 90, -80 70
             Z"
          fill="url(#gradient1)"
          opacity="0.9"/>
    
    <!-- Building structure -->
    <g transform="translate(0, -80)">
      <!-- Main tower -->
      <rect x="-15" y="-40" width="30" height="80" fill="url(#gradient1)" rx="4"/>
      <!-- Windows -->
      <rect x="-10" y="-35" width="20" height="12" fill="#FFF" opacity="0.3" rx="2"/><rect x="-10" y="-17" width="20" height="12" fill="#FFF" opacity="0.3" rx="2"/><rect x="-10" y="1" width="20" height="12" fill="#FFF" opacity="0.3" rx="2"/><rect x="-10" y="19" width="20" height="12" fill="#FFF" opacity="0.3" rx="2"/>
      <!-- Side buildings -->
      <rect x="-40" y="-20" width="20" height="60" fill="url(#gradient1)" opacity="0.8" rx="3"/>
      <rect x="20" y="-30" width="20" height="70" fill="url(#gradient1)" opacity="0.8" rx="3"/>
      <!-- Foundation -->
      <rect x="-50" y="40" width="100" height="10" fill="url(#gradient1)" opacity="0.6" rx="5"/>
    </g>
    
    <!-- Desert elements -->
    <g transform="translate(0, 80)">
      <!-- Dunes -->
      <path d="M -100 0 Q -50 -20, 0 -10 T 100 -20"
            fill="none"
            stroke="url(#gradient1)"
            stroke-width="4"
            stroke-linecap="round"
            opacity="0.5"/>
      <path d="M -80 10 Q -30 -10, 20 0 T 80 -10"
            fill="none"
            stroke="url(#gradient1)"
            stroke-width="3"
            stroke-linecap="round"
            opacity="0.3"/>
    </g>
  </g>
  
  <!-- Company name for full logo -->
  
  <text x="256" y="420" font-family="-apple-system, BlinkMacSystemFont, 'SF Pro Display', Arial, sans-serif" 
        font-size="48" font-weight="700" text-anchor="middle" fill="#2C1810">
    SAHARA
  </text>
  <text x="256" y="460" font-family="-apple-system, BlinkMacSystemFont, 'SF Pro Text', Arial, sans-serif" 
        font-size="24" font-weight="400" text-anchor="middle" fill="#2C1810" opacity="0.8">
    DEVELOPERS
  </text>
  
</svg>