<svg width="512" height="512" viewBox="0 0 512 512" xmlns="http://www.w3.org/2000/svg">
  <defs>
    <linearGradient id="monoGradient" x1="0%" y1="0%" x2="100%" y2="100%">
      <stop offset="0%" style="stop-color:#d4a574;stop-opacity:1" />
      <stop offset="50%" style="stop-color:#8b6914;stop-opacity:1" />
      <stop offset="100%" style="stop-color:#654321;stop-opacity:1" />
    </linearGradient>
  </defs>
  
  <circle cx="256" cy="256" r="240" fill="#FFF8F0"/>
  
  <g transform="translate(256, 256)">
    <!-- Stylized S -->
    <path d="M -80 -120
             Q -120 -120, -120 -80
             C -120 -40, -80 -20, -40 -20
             C 0 -20, 40 -40, 40 -80
             C 40 -120, 80 -140, 120 -140
             Q 160 -140, 160 -100
             C 160 -60, 120 -40, 80 -40
             C 40 -40, 0 -20, 0 20
             C 0 60, -40 80, -80 80
             C -120 80, -160 60, -160 20
             Q -160 0, -140 0"
          fill="none" 
          stroke="url(#monoGradient)" 
          stroke-width="32" 
          stroke-linecap="round"
          stroke-linejoin="round"/>
    
    <!-- Desert accent -->
    <circle cx="-60" cy="120" r="8" fill="#d4a574" opacity="0.6"/>
    <circle cx="-20" cy="130" r="6" fill="#8b6914" opacity="0.5"/>
    <circle cx="20" cy="125" r="7" fill="#654321" opacity="0.5"/>
    <circle cx="60" cy="115" r="5" fill="#d4a574" opacity="0.4"/>
  </g>
</svg>