<svg version="1.0" xmlns="http://www.w3.org/2000/svg" width="700" height="700" viewBox="0 0 700 700">
  <g transform="translate(0,700) scale(0.1,-0.1)" fill="#000000" stroke="none">
    <path d="M3280 6009 c-25 -4 -70 -10 -100 -14 -282 -33 -609 -165 -865 -349 -338 -243 -590 -593 -704 -976 -23 -75 -47 -186 -56 -255 -22 -165 -14 -420 19 -580 84 -417 317 -792 656 -1057 103 -80 293 -191 415 -241 223 -92 423 -137 660 -148 520 -25 1017 173 1395 554 89 90 122 130 190 232 184 277 285 571 310 900 31 404 -85 818 -320 1145 -81 112 -257 293 -370 379 -243 186 -522 311 -810 365 -136 25 -329 36 -420 24z"/>
  </g>
</svg>